<svg xmlns="http://www.w3.org/2000/svg" xmlns:xlink="http://www.w3.org/1999/xlink" id="图层_1" x="0" y="0" version="1.1" viewBox="0 0 1024 1024" xml:space="preserve" style="enable-background:new 0 0 1024 1024"><style type="text/css">.st0{clip-path:url(#SVGID_1_)}.st1{clip-path:url(#SVGID_2_)}.st2{fill:#cc7356}.st3{opacity:.4}.st4{clip-path:url(#SVGID_3_)}.st5{fill:#fff}</style><g><g><defs><rect id="SVGID_7_" width="832" height="832" x="96" y="96"/></defs><clipPath id="SVGID_1_"><use xlink:href="#SVGID_7_" style="overflow:visible"/></clipPath><g id="组_286" class="st0"><g id="组_285"><g><g transform="translate(8 2)"><defs><rect id="SVGID_9_" width="624" height="780" x="192" y="120"/></defs><clipPath id="SVGID_2_"><use xlink:href="#SVGID_9_" style="overflow:visible"/></clipPath><g id="组_284" class="st1"><path id="路径_152" d="M270,120c-43,0.1-77.9,35-78,78v624c0.1,43,35,77.9,78,78h468c43-0.1,77.9-35,78-78 V352.1L584,120H270z" class="st2"/><g id="组_283" class="st3" transform="translate(30.15)"><g id="组_282"><g><g><defs><rect id="SVGID_11_" width="232.1" height="232.1" x="553.8" y="120"/></defs><clipPath id="SVGID_3_"><use xlink:href="#SVGID_11_" style="overflow:visible"/></clipPath><g id="组_281" class="st4"><path id="路径_153" d="M631.8,352.1h154L553.8,120v154.1C553.9,317.1,588.8,351.9,631.8,352.1" class="st5"/></g></g></g></g></g><path id="路径_154" d="M510.2,555.6c-3.4-8.4-8.9-15.7-16-21.3c-7.2-5.4-15.6-8.9-24.5-10.4 c-9.7-1.6-19.4-2.3-29.2-2.1h-74V737h30.8v-85.1h45.4c27.4,0,46.8-6.6,57.5-19.6c10.8-13.3,16.5-30,16-47.1 C516.3,575,514.2,564.9,510.2,555.6 M484.6,586.1c0.6,9.6-2.8,19-9.3,26c-9.2,7-20.7,10.3-32.3,9.1h-45.8v-68.9h45.2 c7.5-0.3,15,0.2,22.4,1.7c5.9,1.8,11,5.8,14.2,11.2C482.9,571.5,484.8,578.7,484.6,586.1" class="st5"/></g></g></g></g></g></g></g></svg>