<svg xmlns="http://www.w3.org/2000/svg" xmlns:xlink="http://www.w3.org/1999/xlink" width="1920" height="370" version="1.1" viewBox="0 0 1920 370"><title>bg</title><defs><rect id="path-1" width="1920" height="370" x="0" y="0"/><rect id="path-3" width="300" height="223" x="0" y="0"/></defs><g id="Dootask官网" fill="none" fill-rule="evenodd" stroke="none" stroke-width="1"><g id="pic"><g transform="translate(0.000000, -481.000000) translate(0.000000, 71.000000)"><g id="bg" transform="translate(0.000000, 410.000000)"><mask id="mask-2" fill="#fff"><use xlink:href="#path-1"/></mask><use id="蒙版" fill="#84C56A" opacity="0" xlink:href="#path-1"/><path id="矩形" fill="#84C56A" d="M0,-410 L1920,-410 L1920,70 C1920,235.685425 1785.68542,370 1620,370 L300,370 C134.314575,370 2.02906125e-14,235.685425 0,70 L0,-410 L0,-410 Z" mask="url(#mask-2)"/><g id="decoration" mask="url(#mask-2)" opacity=".2"><g id="圆" transform="translate(259.000000, 159.000000)"><circle id="椭圆形备份-63" cx="50" cy="50" r="50" fill="#FFF"/></g></g><g id="椭圆形" mask="url(#mask-2)"><g transform="translate(1209.000000, 147.000000)"><mask id="mask-4" fill="#fff"><use xlink:href="#path-3"/></mask><use id="蒙版" fill="#D8D8D8" fill-rule="evenodd" stroke="none" opacity="0" xlink:href="#path-3"/><circle id="椭圆形" cx="150" cy="150" r="150" fill="#FFF" fill-rule="evenodd" stroke="none" mask="url(#mask-4)" opacity=".2"/></g></g><g id="decoration" fill="#FFF" mask="url(#mask-2)" opacity=".5"><g transform="translate(525.000000, -0.000000)"><circle id="椭圆形" cx="3.243" cy="3.243" r="3.243"/><circle id="椭圆形备份-6" cx="3.243" cy="25.946" r="3.243"/><circle id="椭圆形备份-12" cx="3.243" cy="48.649" r="3.243"/><circle id="椭圆形备份-18" cx="3.243" cy="71.351" r="3.243"/><circle id="椭圆形备份-36" cx="3.243" cy="94.351" r="3.243"/><circle id="椭圆形备份-45" cx="3.243" cy="117.351" r="3.243"/><circle id="椭圆形备份-54" cx="3.243" cy="140.351" r="3.243"/><circle id="椭圆形备份-2" cx="48.649" cy="3.243" r="3.243"/><circle id="椭圆形备份-7" cx="48.649" cy="25.946" r="3.243"/><circle id="椭圆形备份-13" cx="48.649" cy="48.649" r="3.243"/><circle id="椭圆形备份-19" cx="48.649" cy="71.351" r="3.243"/><circle id="椭圆形备份-37" cx="48.649" cy="94.351" r="3.243"/><circle id="椭圆形备份-46" cx="48.649" cy="117.351" r="3.243"/><circle id="椭圆形备份-55" cx="48.649" cy="140.351" r="3.243"/><circle id="椭圆形备份-4" cx="94.054" cy="3.243" r="3.243"/><circle id="椭圆形备份-8" cx="94.054" cy="25.946" r="3.243"/><circle id="椭圆形备份-14" cx="94.054" cy="48.649" r="3.243"/><circle id="椭圆形备份-20" cx="94.054" cy="71.351" r="3.243"/><circle id="椭圆形备份-38" cx="94.054" cy="94.351" r="3.243"/><circle id="椭圆形备份-47" cx="94.054" cy="117.351" r="3.243"/><circle id="椭圆形备份-56" cx="94.054" cy="140.351" r="3.243"/><circle id="椭圆形备份" cx="25.946" cy="3.243" r="3.243"/><circle id="椭圆形备份-9" cx="25.946" cy="25.946" r="3.243"/><circle id="椭圆形备份-15" cx="25.946" cy="48.649" r="3.243"/><circle id="椭圆形备份-21" cx="25.946" cy="71.351" r="3.243"/><circle id="椭圆形备份-39" cx="25.946" cy="94.351" r="3.243"/><circle id="椭圆形备份-48" cx="25.946" cy="117.351" r="3.243"/><circle id="椭圆形备份-57" cx="25.946" cy="140.351" r="3.243"/><circle id="椭圆形备份-3" cx="71.351" cy="3.243" r="3.243"/><circle id="椭圆形备份-10" cx="71.351" cy="25.946" r="3.243"/><circle id="椭圆形备份-16" cx="71.351" cy="48.649" r="3.243"/><circle id="椭圆形备份-22" cx="71.351" cy="71.351" r="3.243"/><circle id="椭圆形备份-40" cx="71.351" cy="94.351" r="3.243"/><circle id="椭圆形备份-49" cx="71.351" cy="117.351" r="3.243"/><circle id="椭圆形备份-58" cx="71.351" cy="140.351" r="3.243"/><circle id="椭圆形备份-5" cx="116.757" cy="3.243" r="3.243"/><circle id="椭圆形备份-24" cx="139.757" cy="3.243" r="3.243"/><circle id="椭圆形备份-28" cx="162.757" cy="3.243" r="3.243"/><circle id="椭圆形备份-32" cx="185.757" cy="3.243" r="3.243"/><circle id="椭圆形备份-11" cx="116.757" cy="25.946" r="3.243"/><circle id="椭圆形备份-25" cx="139.757" cy="25.946" r="3.243"/><circle id="椭圆形备份-29" cx="162.757" cy="25.946" r="3.243"/><circle id="椭圆形备份-33" cx="185.757" cy="25.946" r="3.243"/><circle id="椭圆形备份-17" cx="116.757" cy="48.649" r="3.243"/><circle id="椭圆形备份-26" cx="139.757" cy="48.649" r="3.243"/><circle id="椭圆形备份-30" cx="162.757" cy="48.649" r="3.243"/><circle id="椭圆形备份-34" cx="185.757" cy="48.649" r="3.243"/><circle id="椭圆形备份-23" cx="116.757" cy="71.351" r="3.243"/><circle id="椭圆形备份-41" cx="116.757" cy="94.351" r="3.243"/><circle id="椭圆形备份-50" cx="116.757" cy="117.351" r="3.243"/><circle id="椭圆形备份-59" cx="116.757" cy="140.351" r="3.243"/><circle id="椭圆形备份-27" cx="139.757" cy="71.351" r="3.243"/><circle id="椭圆形备份-42" cx="139.757" cy="94.351" r="3.243"/><circle id="椭圆形备份-51" cx="139.757" cy="117.351" r="3.243"/><circle id="椭圆形备份-60" cx="139.757" cy="140.351" r="3.243"/><circle id="椭圆形备份-31" cx="162.757" cy="71.351" r="3.243"/><circle id="椭圆形备份-43" cx="162.757" cy="94.351" r="3.243"/><circle id="椭圆形备份-52" cx="162.757" cy="117.351" r="3.243"/><circle id="椭圆形备份-61" cx="162.757" cy="140.351" r="3.243"/><circle id="椭圆形备份-35" cx="185.757" cy="71.351" r="3.243"/><circle id="椭圆形备份-44" cx="185.757" cy="94.351" r="3.243"/><circle id="椭圆形备份-53" cx="185.757" cy="117.351" r="3.243"/><circle id="椭圆形备份-62" cx="185.757" cy="140.351" r="3.243"/></g></g></g></g></g></g></svg>