<svg xmlns="http://www.w3.org/2000/svg" xmlns:xlink="http://www.w3.org/1999/xlink" id="图层_1" x="0" y="0" version="1.1" viewBox="0 0 1024 1024" xml:space="preserve" style="enable-background:new 0 0 1024 1024"><style type="text/css">.st0{clip-path:url(#SVGID_1_)}.st1{clip-path:url(#SVGID_2_)}.st2{fill:#15b2ff}.st3{opacity:.4}.st4{clip-path:url(#SVGID_3_)}.st5{fill:#fff}</style><g><g><defs><rect id="SVGID_7_" width="832" height="832" x="96" y="96"/></defs><clipPath id="SVGID_1_"><use xlink:href="#SVGID_7_" style="overflow:visible"/></clipPath><g id="组_328" class="st0"><g id="组_327"><g><g transform="translate(8 2)"><defs><rect id="SVGID_9_" width="624" height="780" x="192" y="120"/></defs><clipPath id="SVGID_2_"><use xlink:href="#SVGID_9_" style="overflow:visible"/></clipPath><g id="组_326" class="st1"><path id="路径_172" d="M270,120c-43,0.1-77.9,35-78,78v624c0.1,43,35,77.9,78,78h468c43-0.1,77.9-35,78-78 V352.1L584,120H270z" class="st2"/><g id="组_325" class="st3" transform="translate(30.15)"><g id="组_324"><g><g><defs><rect id="SVGID_11_" width="232.1" height="232.1" x="553.8" y="120"/></defs><clipPath id="SVGID_3_"><use xlink:href="#SVGID_11_" style="overflow:visible"/></clipPath><g id="组_323" class="st4"><path id="路径_173" d="M631.8,352.1h154L553.8,120v154.1C553.9,317.1,588.8,351.9,631.8,352.1" class="st5"/></g></g></g></g></g><path id="路径_174" d="M368.3,711.4c-0.5,0-0.8,0.2-1.3,0.2c-30,0-54.4-24.3-54.4-54.3s24.3-54.4,54.3-54.4 c25.6,0,47.7,17.8,53.2,42.8l13.6-17.2c-11.2-27-37.4-44.8-66.7-45c-40.7-0.1-73.7,32.8-73.8,73.5 c-0.1,35.8,25.6,66.4,60.8,72.7L368.3,711.4z" class="st5"/><path id="路径_175" d="M573.3,626.1c6.9,9,10.7,19.9,10.9,31.2c0,29.9-24.3,54.2-54.2,54.2 c-10.8,0-21.4-3.3-30.4-9.4l-30.4-23.9l-12,15.4l27.3,21.8c1.6,0.8,2.7,1.9,4.3,2.7c12.1,8.4,26.6,12.9,41.3,12.9 c40.5,0.2,73.5-32.4,73.7-72.9c0.1-17.6-6.2-34.7-17.7-48.1L573.3,626.1z" class="st5"/><path id="路径_176" d="M529.9,602.9c10.5,0.2,20.8,3.6,29.4,9.7l12.3-15.6c-12.1-8.7-26.7-13.4-41.6-13.6 c-23.3,0.1-45.2,11.2-59,29.9L378.7,730c19.6-3.2,37-14.2,48.4-30.5l52.8-66.6l46.7,37.2l12.2-15.2l-46-36.7 C502.7,608.5,516,603,529.9,602.9" class="st5"/></g></g></g></g></g></g></g></svg>