<svg xmlns="http://www.w3.org/2000/svg" width="528" height="240" fill="none" viewBox="0 0 528 240"><g clip-path="url(#clip0_1358_723)"><rect width="528" height="240" fill="#F8F6F6" rx="20"/><rect width="522" height="405" x="90" y="38" fill="#F8D7CF" rx="10"/><rect width="482" height="374" x="117" y="56" fill="#F5FAFA"/><rect width="450" height="105" x="137.5" y="74.5" stroke="#EFF2F7" rx="9.5"/><g filter="url(#filter0_d_1358_723)"><rect width="70" height="70" x="155" y="92" fill="#FF7155" rx="35"/></g><path fill="#DBE5FA" fill-rule="evenodd" d="M193.564 127.063C196.749 125.768 198.974 122.816 198.974 119.381C198.974 114.752 194.934 111 189.949 111C184.964 111 180.923 114.752 180.923 119.381C180.923 122.816 183.149 125.768 186.334 127.063C180.383 128.655 176 134.085 176 140.538V143H203.897V140.538C203.897 134.085 199.515 128.655 193.564 127.063Z" clip-rule="evenodd"/><rect width="190" height="10" x="255" y="149" fill="#E5E1E0" rx="5"/><rect width="92" height="10" x="255" y="149" fill="#F3474C" rx="5"/><rect width="160" height="6" x="255" y="127" fill="#E5E1E0" rx="3"/><rect width="293" height="16" x="255" y="95" fill="#E5E1E0" rx="8"/><g filter="url(#filter1_d_1358_723)"><rect width="445" height="106" x="47" y="146" fill="#fff" rx="10"/><rect width="444" height="105" x="47.5" y="146.5" stroke="#EFF2F7" rx="9.5"/></g><rect width="69" height="69" x="65.5" y="164.5" fill="#fff" stroke="#E7E9E4" rx="9.5"/><circle cx="100" cy="199" r="20" fill="url(#paint0_linear_1358_723)"/><rect width="228" height="10" x="165" y="221" fill="#E5E1E0" rx="5"/><rect width="163.2" height="10" x="165" y="221" fill="url(#paint1_linear_1358_723)" rx="5"/><rect width="124.8" height="6" x="165" y="199" fill="#E5E1E0" rx="3"/><rect width="304" height="16" x="165" y="167" fill="#E5E1E0" rx="8"/><g filter="url(#filter2_d_1358_723)"><path fill="#EE61D4" d="M446.625 218.04L438.48 240.408L412.366 192.219L465.233 206.522L446.625 218.04Z"/><path stroke="#fff" stroke-width="2" d="M446.625 218.04L438.48 240.408L412.366 192.219L465.233 206.522L446.625 218.04Z"/></g></g><defs><filter id="filter0_d_1358_723" width="88" height="88" x="146" y="87" color-interpolation-filters="sRGB" filterUnits="userSpaceOnUse"><feFlood flood-opacity="0" result="BackgroundImageFix"/><feColorMatrix in="SourceAlpha" result="hardAlpha" type="matrix" values="0 0 0 0 0 0 0 0 0 0 0 0 0 0 0 0 0 0 127 0"/><feOffset dy="4"/><feGaussianBlur stdDeviation="4.5"/><feComposite in2="hardAlpha" operator="out"/><feColorMatrix type="matrix" values="0 0 0 0 0 0 0 0 0 0 0 0 0 0 0 0 0 0 0.05 0"/><feBlend in2="BackgroundImageFix" mode="normal" result="effect1_dropShadow_1358_723"/><feBlend in="SourceGraphic" in2="effect1_dropShadow_1358_723" mode="normal" result="shape"/></filter><filter id="filter1_d_1358_723" width="493" height="154" x="23" y="126" color-interpolation-filters="sRGB" filterUnits="userSpaceOnUse"><feFlood flood-opacity="0" result="BackgroundImageFix"/><feColorMatrix in="SourceAlpha" result="hardAlpha" type="matrix" values="0 0 0 0 0 0 0 0 0 0 0 0 0 0 0 0 0 0 127 0"/><feMorphology in="SourceAlpha" operator="dilate" radius="8" result="effect1_dropShadow_1358_723"/><feOffset dy="4"/><feGaussianBlur stdDeviation="8"/><feComposite in2="hardAlpha" operator="out"/><feColorMatrix type="matrix" values="0 0 0 0 0 0 0 0 0 0 0 0 0 0 0 0 0 0 0.08 0"/><feBlend in2="BackgroundImageFix" mode="normal" result="effect1_dropShadow_1358_723"/><feBlend in="SourceGraphic" in2="effect1_dropShadow_1358_723" mode="normal" result="shape"/></filter><filter id="filter2_d_1358_723" width="105.344" height="100.194" x="386.375" y="170.645" color-interpolation-filters="sRGB" filterUnits="userSpaceOnUse"><feFlood flood-opacity="0" result="BackgroundImageFix"/><feColorMatrix in="SourceAlpha" result="hardAlpha" type="matrix" values="0 0 0 0 0 0 0 0 0 0 0 0 0 0 0 0 0 0 127 0"/><feMorphology in="SourceAlpha" operator="dilate" radius="8" result="effect1_dropShadow_1358_723"/><feOffset dy="4"/><feGaussianBlur stdDeviation="8"/><feComposite in2="hardAlpha" operator="out"/><feColorMatrix type="matrix" values="0 0 0 0 0 0 0 0 0 0 0 0 0 0 0 0 0 0 0.08 0"/><feBlend in2="BackgroundImageFix" mode="normal" result="effect1_dropShadow_1358_723"/><feBlend in="SourceGraphic" in2="effect1_dropShadow_1358_723" mode="normal" result="shape"/></filter><linearGradient id="paint0_linear_1358_723" x1="82.975" x2="126.401" y1="169.739" y2="180.913" gradientUnits="userSpaceOnUse"><stop stop-color="#FF7155"/><stop offset=".497" stop-color="#EF3E56"/><stop offset="1" stop-color="#EE61D4"/></linearGradient><linearGradient id="paint1_linear_1358_723" x1="177.139" x2="187.277" y1="218.685" y2="261.257" gradientUnits="userSpaceOnUse"><stop stop-color="#FF7155"/><stop offset=".497" stop-color="#EF3E56"/><stop offset="1" stop-color="#EE61D4"/></linearGradient><clipPath id="clip0_1358_723"><rect width="528" height="240" fill="#fff" rx="20"/></clipPath></defs></svg>