<svg xmlns="http://www.w3.org/2000/svg" width="528" height="240" fill="none" viewBox="0 0 528 240"><g clip-path="url(#clip0_1358_798)"><rect width="528" height="240" fill="#F8F6F6" rx="20"/><rect width="372" height="15" x="117" y="31" fill="#E5E0E0"/><rect width="338.757" height="15" x="117" y="56" fill="#E5E0E0"/><rect width="300.766" height="15" x="117" y="81" fill="#E5E0E0"/><rect width="265.94" height="15" x="117" y="106" fill="#E5E0E0"/><rect width="63" height="90" x="32" y="31" fill="#F3474C" rx="2"/><circle cx="326" cy="61" r="25" fill="#FF7155" transform="rotate(180 326 61)"/><path fill="#F3474C" stroke="#fff" stroke-width="2" d="M378.5 51.2588L366 31L420 40.3882L376 73L378.5 51.2588Z"/><circle cx="242.922" cy="180.922" r="40.922" fill="#E5E0E0"/><circle cx="347.5" cy="180.922" r="40.922" fill="#EE61D4"/><circle cx="451.922" cy="180.922" r="40.922" fill="url(#paint0_linear_1358_798)"/><circle cx="472" cy="181" r="4" fill="#fff"/><circle cx="457" cy="181" r="6" fill="#fff"/><circle cx="437" cy="181" r="9" fill="#fff"/></g><defs><linearGradient id="paint0_linear_1358_798" x1="417.088" x2="505.941" y1="121.051" y2="143.913" gradientUnits="userSpaceOnUse"><stop stop-color="#FF7155"/><stop offset=".497" stop-color="#EF3E56"/><stop offset="1" stop-color="#EE61D4"/></linearGradient><clipPath id="clip0_1358_798"><rect width="528" height="240" fill="#fff" rx="20"/></clipPath></defs></svg>