<svg xmlns="http://www.w3.org/2000/svg" xmlns:xlink="http://www.w3.org/1999/xlink" id="图层_1" x="0" y="0" version="1.1" viewBox="0 0 1024 1024" xml:space="preserve" style="enable-background:new 0 0 1024 1024"><style type="text/css">.st0{clip-path:url(#SVGID_1_)}.st1{clip-path:url(#SVGID_2_)}.st2{fill:#41a5ee}.st3{opacity:.4}.st4{clip-path:url(#SVGID_3_)}.st5{fill:#fff}</style><g><g><defs><rect id="SVGID_7_" width="832" height="832" x="96" y="96"/></defs><clipPath id="SVGID_1_"><use xlink:href="#SVGID_7_" style="overflow:visible"/></clipPath><g id="组_251" class="st0"><g id="组_250"><g><g transform="translate(8 2)"><defs><rect id="SVGID_9_" width="624" height="780" x="192" y="120"/></defs><clipPath id="SVGID_2_"><use xlink:href="#SVGID_9_" style="overflow:visible"/></clipPath><g id="组_249" class="st1"><path id="路径_136" d="M270,120c-43,0.1-77.9,35-78,78v624c0.1,43,35,77.9,78,78h468c43-0.1,77.9-35,78-78 V352.1L584,120H270z" class="st2"/><g id="组_248" class="st3" transform="translate(30.15)"><g id="组_247"><g><g><defs><rect id="SVGID_11_" width="232.1" height="232.1" x="553.8" y="120"/></defs><clipPath id="SVGID_3_"><use xlink:href="#SVGID_11_" style="overflow:visible"/></clipPath><g id="组_246" class="st4"><path id="路径_137" d="M631.8,352.1h154L553.8,120v154.1C553.9,317.1,588.8,351.9,631.8,352.1" class="st5"/></g></g></g></g></g><path id="路径_138" d="M368.7,735.8l-58.5-212.4h33.4L374,646l11.3,45.6c0.5-2.3,3.8-16.9,9.9-43.8l30.4-124.4 h33.3l28.6,123.2l9.5,40.6l11-41l32.8-122.8h31.6l-59.8,212.4H479l-30.4-127.1l-7.4-36.2l-38.6,163.3L368.7,735.8 L368.7,735.8z" class="st5"/></g></g></g></g></g></g></g></svg>