<svg xmlns="http://www.w3.org/2000/svg" xmlns:xlink="http://www.w3.org/1999/xlink" id="图层_1" x="0" y="0" version="1.1" viewBox="0 0 1024 1024" xml:space="preserve" style="enable-background:new 0 0 1024 1024"><style type="text/css">.st1{fill:#f9b552}.st2{fill:#ffcf5c}</style><g><g><g><defs><rect id="SVGID_1_" width="832" height="832" x="96" y="96"/></defs><clipPath id="SVGID_00000083806474236884102000000004358771661522909088_"><use xlink:href="#SVGID_1_" style="overflow:visible"/></clipPath><g id="组_229" style="clip-path:url(#SVGID_00000083806474236884102000000004358771661522909088_)"><path id="路径_130" d="M224,752.4h576.1c35.3-0.1,63.9-28.7,64-64V299.8c-0.1-35.3-28.7-63.9-64-64H224 c-35.3,0.1-63.9,28.7-64,64v388.6C160.1,723.7,188.7,752.3,224,752.4" class="st1"/><path id="路径_131" d="M842.7,871.6H181.3c-47.1,0-85.3-38.2-85.3-85.3V252.8c0-47.1,38.2-85.3,85.3-85.3h268.5 c36.6,0,69.1,23.3,80.9,58l24.1,71.4c11.7,34.7,44.3,58,80.9,58h206.6c47.1,0,85.3,38.1,85.3,85.2l0.5,346 C928,833.3,889.8,871.6,842.7,871.6L842.7,871.6" class="st2"/></g></g></g><path d="M532.8,586c28.4-15.1,47.3-45.4,47.3-79.5c0-51.1-41.7-90.9-90.9-90.9c-51.1,0-90.9,41.7-90.9,90.9 c0,34.1,18.9,62.5,45.4,79.5c-62.5,18.9-109.8,72-115.5,140.1c0,5.7,3.8,9.5,9.5,9.5h303c5.7,0,9.5-5.7,9.5-9.5 C642.7,659.8,595.3,604.9,532.8,586z M614.3,565.1c18.9-11.4,32.2-32.2,32.2-56.8c0-34.1-24.6-60.6-56.8-64.4 c11.4,18.9,17,39.8,17,62.5c0,26.5-9.5,51.1-22.7,70.1c36,20.8,64.4,54.9,79.5,92.8H690c3.8,0,5.7-3.8,5.7-7.6 C691.9,616.3,659.7,576.5,614.3,565.1z" class="st1"/></g></svg>