<svg xmlns="http://www.w3.org/2000/svg" xmlns:xlink="http://www.w3.org/1999/xlink" id="图层_1" x="0" y="0" version="1.1" viewBox="0 0 1024 1024" xml:space="preserve" style="enable-background:new 0 0 1024 1024"><style type="text/css">.st0{clip-path:url(#SVGID_1_)}.st1{clip-path:url(#SVGID_2_)}.st2{fill:#009f4e}.st3{opacity:.4}.st4{clip-path:url(#SVGID_3_)}.st5{fill:#fff}.st6{fill:none;stroke:#fff;stroke-width:1.25;stroke-linecap:round;stroke-linejoin:round}</style><g><g><defs><rect id="SVGID_7_" width="832" height="832" x="96" y="96"/></defs><clipPath id="SVGID_1_"><use xlink:href="#SVGID_7_" style="overflow:visible"/></clipPath><g id="组_379" class="st0"><g id="组_378"><g><g transform="translate(8 2)"><defs><rect id="SVGID_9_" width="624" height="780" x="192" y="120"/></defs><clipPath id="SVGID_2_"><use xlink:href="#SVGID_9_" style="overflow:visible"/></clipPath><g id="组_377" class="st1"><g id="路径_200"><path d="M270,120c-43,0.1-77.9,35-78,78v624c0.1,43,35,77.9,78,78h468c43-0.1,77.9-35,78-78V352.1L584,120H270z" class="st2"/></g><g id="组_376" class="st3" transform="translate(30.15)"><g id="组_375"><g><g><defs><rect id="SVGID_11_" width="232.1" height="232.1" x="553.8" y="120"/></defs><clipPath id="SVGID_3_"><use xlink:href="#SVGID_11_" style="overflow:visible"/></clipPath><g id="组_374" class="st4"><g id="路径_201"><path d="M631.8,352.1h154L553.8,120v154.1C553.9,317.1,588.8,351.9,631.8,352.1" class="st5"/></g></g></g></g></g></g><g id="矩形_196"><path d="M551.8,754.5h-221c-8.1,0-14.6-6.6-14.6-14.6v-221c0-8.1,6.6-14.6,14.6-14.6h221 c8.1,0,14.6,6.6,14.6,14.6v221C566.4,748,559.8,754.5,551.8,754.5z M332.4,738.3h217.8V520.5H332.4V738.3z M551.8,520.5 L551.8,520.5L551.8,520.5z" class="st5"/></g><g id="路径_202"><path d="M558.3,590.4L558.3,590.4z" class="st6"/></g><g id="直线_98"><path d="M402.3,752.3c-4.5,0-8.1-3.6-8.1-8.1V590.6c0-4.5,3.6-8.1,8.1-8.1s8.1,3.6,8.1,8.1v153.6 C410.4,748.7,406.8,752.3,402.3,752.3z" class="st5"/></g><g id="直线_99"><path d="M480.3,752.3c-4.5,0-8.1-3.6-8.1-8.1V590.6c0-4.5,3.6-8.1,8.1-8.1s8.1,3.6,8.1,8.1v153.6 C488.4,748.7,484.8,752.3,480.3,752.3z" class="st5"/></g><g id="路径_203"><path d="M558.3,668.4L558.3,668.4z" class="st6"/></g><g id="直线_99_1_"><path d="M318.6,590.4c0-4.5,5.2-8.1,11.7-8.1H552c6.5,0,11.7,3.6,11.7,8.1s-5.2,8.1-11.7,8.1H330.3 C323.8,598.5,318.6,594.9,318.6,590.4z" class="st5"/></g><g id="直线_99_2_"><path d="M318.6,672c0-4.5,5.2-8.1,11.7-8.1H552c6.5,0,11.7,3.6,11.7,8.1s-5.2,8.1-11.7,8.1H330.3 C323.8,680.1,318.6,676.4,318.6,672z" class="st5"/></g></g></g></g></g></g></g></g></svg>