<svg xmlns="http://www.w3.org/2000/svg" xmlns:xlink="http://www.w3.org/1999/xlink" style="enable-background:new 0 0 1024 1024" id="图层_1" x="0" y="0" version="1.1" viewBox="0 0 1024 1024" xml:space="preserve"><style type="text/css">.st0{clip-path:url(#SVGID_1_)}.st1{fill:#999}.st2{clip-path:url(#SVGID_2_)}.st3{clip-path:url(#SVGID_3_)}.st4{opacity:.375}.st6{opacity:.4}.st7{clip-path:url(#SVGID_5_)}.st8{fill:#fff}.st9{enable-background:new}</style><g><g><g><defs><rect id="SVGID_11_" width="832" height="832" x="96" y="96"/></defs><clipPath id="SVGID_1_"><use style="overflow:visible" xlink:href="#SVGID_11_"/></clipPath><g id="路径_187" class="st0"><path d="M278,122c-43,0.1-77.9,35-78,78v624c0.1,43,35,77.9,78,78h468c43-0.1,77.9-35,78-78V354.1L592,122H278z" class="st1"/></g></g><g><defs><rect id="SVGID_13_" width="832" height="832" x="96" y="96"/></defs><clipPath id="SVGID_2_"><use style="overflow:visible" xlink:href="#SVGID_13_"/></clipPath><g id="组_357" class="st2"><g id="组_359" transform="translate(8 2)"><g id="组_354"><g><g><g><defs><rect id="SVGID_15_" width="624" height="780" x="192" y="120"/></defs><clipPath id="SVGID_3_"><use style="overflow:visible" xlink:href="#SVGID_15_"/></clipPath><g id="组_353" class="st3"><g id="组_349" class="st4"><g id="组_348"><g><g><g><defs><rect id="SVGID_17_" width="624" height="780" x="192" y="120"/></defs><clipPath id="SVGID_4_"><use style="overflow:visible" xlink:href="#SVGID_17_"/></clipPath></g></g></g></g></g><g id="组_352" class="st6" transform="translate(30.15)"><g id="组_351"><g><g><g><defs><rect id="SVGID_19_" width="232.1" height="232.1" x="553.8" y="120"/></defs><clipPath id="SVGID_5_"><use style="overflow:visible" xlink:href="#SVGID_19_"/></clipPath><g id="组_350" class="st7"><g id="路径_188"><path d="M631.8,352.1h154L553.8,120v154.1C553.9,317.1,588.8,351.9,631.8,352.1" class="st8"/></g></g></g></g></g></g></g></g></g></g></g></g><g class="st9"><path d="M345.4,698.9V598.4h-35.9V578h96.1v20.5h-35.8V699L345.4,698.9L345.4,698.9z" class="st8"/><path d="M409.1,698.9l41.3-63.1L413,578h28.6l24.3,38.9l23.8-38.9H518l-37.6,58.8l41.3,62.2h-29.5l-26.8-41.8 L438.5,699L409.1,698.9L409.1,698.9z" class="st8"/><path d="M561.4,698.9V598.4h-35.9V578h96.1v20.5h-35.8V699L561.4,698.9L561.4,698.9z" class="st8"/></g></g></g></g></g></g></svg>