<svg xmlns="http://www.w3.org/2000/svg" width="364" height="430" fill="none" viewBox="0 0 364 430"><g clip-path="url(#clip0_117_3668)"><rect width="364" height="430" fill="#222827" rx="20"/><rect width="353" height="405" x="20" y="38" fill="#2A312E" rx="10"/><rect width="326" height="374" x="38" y="56" fill="#252B2A"/><rect width="312" height="324" x="67.5" y="94.5" stroke="#373C31" rx="9.5"/><g filter="url(#filter0_d_117_3668)"><rect width="56" height="56" x="85" y="112" fill="#2E65C9" rx="28"/></g><path fill="#DBE5FA" fill-rule="evenodd" d="M115.852 140.05C118.4 139.015 120.18 136.653 120.18 133.905C120.18 130.202 116.947 127.2 112.96 127.2C108.972 127.2 105.739 130.202 105.739 133.905C105.739 136.653 107.52 139.015 110.068 140.05C105.307 141.324 101.801 145.668 101.801 150.831V152.8H124.119V150.831C124.119 145.668 120.613 141.324 115.852 140.05Z" clip-rule="evenodd" opacity=".8"/><rect width="76" height="24" x="155" y="128" fill="#303B39"/><g filter="url(#filter1_d_117_3668)"><rect width="56" height="56" x="85" y="190" fill="#2E65C9" rx="28"/></g><path fill="#DBE5FA" fill-rule="evenodd" d="M115.852 218.05C118.4 217.015 120.18 214.653 120.18 211.905C120.18 208.202 116.947 205.2 112.96 205.2C108.972 205.2 105.739 208.202 105.739 211.905C105.739 214.653 107.52 217.015 110.068 218.05C105.307 219.324 101.801 223.668 101.801 228.831V230.8H124.119V228.831C124.119 223.668 120.613 219.324 115.852 218.05Z" clip-rule="evenodd" opacity=".8"/><rect width="76" height="24" x="155" y="206" fill="#303B39"/><g filter="url(#filter2_d_117_3668)"><rect width="56" height="56" x="85" y="268" fill="#2E65C9" rx="28"/></g><path fill="#DBE5FA" fill-rule="evenodd" d="M115.852 296.05C118.4 295.015 120.18 292.653 120.18 289.905C120.18 286.202 116.947 283.2 112.96 283.2C108.972 283.2 105.739 286.202 105.739 289.905C105.739 292.653 107.52 295.015 110.068 296.05C105.307 297.324 101.801 301.668 101.801 306.831V308.8H124.119V306.831C124.119 301.668 120.613 297.324 115.852 296.05Z" clip-rule="evenodd" opacity=".8"/><rect width="76" height="24" x="155" y="284" fill="#303B39"/><g filter="url(#filter3_d_117_3668)"><rect width="56" height="56" x="85" y="348" fill="#2E65C9" rx="28"/></g><path fill="#DBE5FA" fill-rule="evenodd" d="M115.852 376.05C118.4 375.015 120.18 372.653 120.18 369.905C120.18 366.202 116.947 363.2 112.96 363.2C108.972 363.2 105.739 366.202 105.739 369.905C105.739 372.653 107.52 375.015 110.068 376.05C105.307 377.324 101.801 381.668 101.801 386.831V388.8H124.119V386.831C124.119 381.668 120.613 377.324 115.852 376.05Z" clip-rule="evenodd" opacity=".8"/><rect width="76" height="24" x="155" y="364" fill="#303B39"/><g filter="url(#filter4_d_117_3668)"><rect width="348" height="181" x="82" y="25" fill="#2F3634" rx="10"/><rect width="237" height="11" x="102" y="76" fill="#35403E"/><rect width="237" height="11" x="102" y="94" fill="#35403E"/><rect width="128" height="19" x="102" y="46" fill="#35403E"/><rect width="237" height="11" x="102" y="158" fill="#35403E"/><rect width="237" height="11" x="102" y="176" fill="#35403E"/><rect width="128" height="19" x="102" y="128" fill="#35403E"/></g><path fill="#58A738" stroke="#fff" stroke-width="2" d="M314.626 216.04L306.48 238.409L280.366 190.219L333.234 204.522L314.626 216.04Z"/></g><defs><filter id="filter0_d_117_3668" width="74" height="74" x="76" y="107" color-interpolation-filters="sRGB" filterUnits="userSpaceOnUse"><feFlood flood-opacity="0" result="BackgroundImageFix"/><feColorMatrix in="SourceAlpha" result="hardAlpha" type="matrix" values="0 0 0 0 0 0 0 0 0 0 0 0 0 0 0 0 0 0 127 0"/><feOffset dy="4"/><feGaussianBlur stdDeviation="4.5"/><feComposite in2="hardAlpha" operator="out"/><feColorMatrix type="matrix" values="0 0 0 0 0 0 0 0 0 0 0 0 0 0 0 0 0 0 0.05 0"/><feBlend in2="BackgroundImageFix" mode="normal" result="effect1_dropShadow_117_3668"/><feBlend in="SourceGraphic" in2="effect1_dropShadow_117_3668" mode="normal" result="shape"/></filter><filter id="filter1_d_117_3668" width="74" height="74" x="76" y="185" color-interpolation-filters="sRGB" filterUnits="userSpaceOnUse"><feFlood flood-opacity="0" result="BackgroundImageFix"/><feColorMatrix in="SourceAlpha" result="hardAlpha" type="matrix" values="0 0 0 0 0 0 0 0 0 0 0 0 0 0 0 0 0 0 127 0"/><feOffset dy="4"/><feGaussianBlur stdDeviation="4.5"/><feComposite in2="hardAlpha" operator="out"/><feColorMatrix type="matrix" values="0 0 0 0 0 0 0 0 0 0 0 0 0 0 0 0 0 0 0.05 0"/><feBlend in2="BackgroundImageFix" mode="normal" result="effect1_dropShadow_117_3668"/><feBlend in="SourceGraphic" in2="effect1_dropShadow_117_3668" mode="normal" result="shape"/></filter><filter id="filter2_d_117_3668" width="74" height="74" x="76" y="263" color-interpolation-filters="sRGB" filterUnits="userSpaceOnUse"><feFlood flood-opacity="0" result="BackgroundImageFix"/><feColorMatrix in="SourceAlpha" result="hardAlpha" type="matrix" values="0 0 0 0 0 0 0 0 0 0 0 0 0 0 0 0 0 0 127 0"/><feOffset dy="4"/><feGaussianBlur stdDeviation="4.5"/><feComposite in2="hardAlpha" operator="out"/><feColorMatrix type="matrix" values="0 0 0 0 0 0 0 0 0 0 0 0 0 0 0 0 0 0 0.05 0"/><feBlend in2="BackgroundImageFix" mode="normal" result="effect1_dropShadow_117_3668"/><feBlend in="SourceGraphic" in2="effect1_dropShadow_117_3668" mode="normal" result="shape"/></filter><filter id="filter3_d_117_3668" width="74" height="74" x="76" y="343" color-interpolation-filters="sRGB" filterUnits="userSpaceOnUse"><feFlood flood-opacity="0" result="BackgroundImageFix"/><feColorMatrix in="SourceAlpha" result="hardAlpha" type="matrix" values="0 0 0 0 0 0 0 0 0 0 0 0 0 0 0 0 0 0 127 0"/><feOffset dy="4"/><feGaussianBlur stdDeviation="4.5"/><feComposite in2="hardAlpha" operator="out"/><feColorMatrix type="matrix" values="0 0 0 0 0 0 0 0 0 0 0 0 0 0 0 0 0 0 0.05 0"/><feBlend in2="BackgroundImageFix" mode="normal" result="effect1_dropShadow_117_3668"/><feBlend in="SourceGraphic" in2="effect1_dropShadow_117_3668" mode="normal" result="shape"/></filter><filter id="filter4_d_117_3668" width="396" height="229" x="58" y="5" color-interpolation-filters="sRGB" filterUnits="userSpaceOnUse"><feFlood flood-opacity="0" result="BackgroundImageFix"/><feColorMatrix in="SourceAlpha" result="hardAlpha" type="matrix" values="0 0 0 0 0 0 0 0 0 0 0 0 0 0 0 0 0 0 127 0"/><feMorphology in="SourceAlpha" operator="dilate" radius="8" result="effect1_dropShadow_117_3668"/><feOffset dy="4"/><feGaussianBlur stdDeviation="8"/><feComposite in2="hardAlpha" operator="out"/><feColorMatrix type="matrix" values="0 0 0 0 0 0 0 0 0 0 0 0 0 0 0 0 0 0 0.12 0"/><feBlend in2="BackgroundImageFix" mode="normal" result="effect1_dropShadow_117_3668"/><feBlend in="SourceGraphic" in2="effect1_dropShadow_117_3668" mode="normal" result="shape"/></filter><clipPath id="clip0_117_3668"><rect width="364" height="430" fill="#fff" rx="20"/></clipPath></defs></svg>