<svg xmlns="http://www.w3.org/2000/svg" width="364" height="430" fill="none" viewBox="0 0 364 430"><rect width="364" height="430" fill="#252B2A" rx="20"/><rect width="235" height="15" x="107" y="55" fill="#303C3A"/><rect width="214" height="15" x="107" y="80" fill="#303C3A"/><rect width="190" height="15" x="107" y="105" fill="#303C3A"/><rect width="168" height="15" x="107" y="130" fill="#303C3A"/><rect width="235" height="15" x="107" y="180" fill="#303C3A"/><rect width="214" height="15" x="107" y="205" fill="#303C3A"/><rect width="190" height="15" x="107" y="230" fill="#303C3A"/><rect width="168" height="15" x="107" y="255" fill="#303C3A"/><rect width="63" height="90" x="22" y="55" fill="#58A738" rx="2"/><rect width="63" height="90" x="22" y="180" fill="#2E65C9" rx="2"/><circle cx="190" cy="70" r="25" fill="#58A738" transform="rotate(180 190 70)"/><path fill="#58A738" stroke="#fff" stroke-width="2" d="M242.5 60.2588L230 40L284 49.3882L240 82L242.5 60.2588Z"/><circle cx="67" cy="345" r="45" fill="#303B39"/><circle cx="182" cy="345" r="45" fill="#2E65C9"/><circle cx="297" cy="345" r="45" fill="#58A738"/><circle cx="317" cy="345" r="4" fill="#fff"/><circle cx="302" cy="345" r="6" fill="#fff"/><circle cx="282" cy="345" r="9" fill="#fff"/></svg>