<svg xmlns="http://www.w3.org/2000/svg" xmlns:xlink="http://www.w3.org/1999/xlink" id="图层_1" x="0" y="0" version="1.1" viewBox="0 0 48 48" xml:space="preserve" style="enable-background:new 0 0 48 48"><style type="text/css">.st0{fill:#53cbae}.st1{fill:#fff}</style><path d="M36,48H12C5.4,48,0,42.6,0,36V12C0,5.4,5.4,0,12,0h24c6.6,0,12,5.4,12,12v24C48,42.6,42.6,48,36,48z" class="st0"/><g><g><path d="M35.8,18.3l-2.6,2.2c-0.3,0.3-0.5,0.6-0.5,1v4.8c0,0.4,0.2,0.8,0.5,1l2.6,2.2c0.9,0.8,2.2,0.1,2.2-1v-9.3 C38,18.2,36.6,17.6,35.8,18.3z" class="st1"/><path d="M28.8,14.6H12c-1.1,0-2,0.9-2,2v14.8c0,1.1,0.9,2,2,2h16.8c1.1,0,2-0.9,2-2V16.6 C30.8,15.5,29.9,14.6,28.8,14.6z M23.4,24.7h-2.2V27c0,0.4-0.3,0.7-0.7,0.7c-0.4,0-0.7-0.3-0.7-0.7v-2.2h-2.2 c-0.4,0-0.7-0.3-0.7-0.7s0.3-0.7,0.7-0.7h2.2V21c0-0.4,0.3-0.7,0.7-0.7c0.4,0,0.7,0.3,0.7,0.7v2.2h2.2c0.4,0,0.7,0.3,0.7,0.7 S23.8,24.7,23.4,24.7z" class="st1"/></g></g></svg>